REM MD5 edaf0294fbcd06538f3017bdca35218b
FILE "Dexter's Laboratory - Mandark's Lab (Europe) (Fr,De).bin" BINARY
  TRACK 01 MODE2/2352
    INDEX 01 00:00:00
  TRACK 02 AUDIO
    INDEX 00 34:53:21
    INDEX 01 34:55:21
  TRACK 03 AUDIO
    INDEX 00 35:11:22
    INDEX 01 35:13:22
REM LEADOUT 65:12:22
